<?xml version="1.0" encoding="UTF-8"?>
<svg xmlns="http://www.w3.org/2000/svg" xmlns:xlink="http://www.w3.org/1999/xlink" viewBox="0 0 500 500">
  <defs>
    <style>
      .cls-1, .cls-2, .cls-3, .cls-4, .cls-5, .cls-6 {
        fill: none;
      }

      .cls-2 {
        stroke: #1c1c1b;
      }

      .cls-2, .cls-3, .cls-4, .cls-6 {
        stroke-width: 1.5px;
      }

      .cls-2, .cls-3, .cls-5, .cls-6 {
        stroke-linecap: round;
      }

      .cls-2, .cls-5, .cls-6 {
        stroke-linejoin: round;
      }

      .cls-7 {
        fill: #a34eba;
      }

      .cls-8 {
        fill: #2e71f0;
      }

      .cls-3 {
        stroke: #de290d;
      }

      .cls-3, .cls-4 {
        stroke-miterlimit: 10;
      }

      .cls-4 {
        stroke: #f7cf00;
      }

      .cls-9 {
        fill: #f73802;
      }

      .cls-5, .cls-6 {
        stroke: #000;
      }

      .cls-10 {
        clip-path: url(#clippath-1);
      }

      .cls-11 {
        clip-path: url(#clippath-3);
      }

      .cls-12 {
        clip-path: url(#clippath-4);
      }

      .cls-13 {
        clip-path: url(#clippath-2);
      }

      .cls-14 {
        clip-path: url(#clippath-5);
      }

      .cls-15 {
        fill: #fff;
      }

      .cls-16 {
        fill: #ffe8e8;
      }

      .cls-17 {
        fill: #1c1c1b;
      }

      .cls-18 {
        fill: #f7cf00;
      }

      .cls-19 {
        fill: #213fb5;
      }

      .cls-20 {
        fill: #ff7575;
      }

      .cls-21 {
        clip-path: url(#clippath);
      }
    </style>
    <clipPath id="clippath">
      <path class="cls-1" d="M81.41,411.38h45.76v15.27c0,8.25-6.7,14.96-14.96,14.96h-15.85c-8.25,0-14.96-6.7-14.96-14.96v-15.27h0Z"/>
    </clipPath>
    <clipPath id="clippath-1">
      <path class="cls-1" d="M290.26,152.55c10.54-.16,57.56-1,67.92-1.19,1.14-.02,2.08.85,2.14,1.96l16.03,89.84c.07,1.17-.86,2.17-2.05,2.2l-12.43,2.49-72.9-.43c-1.2.03-2.19-.93-2.18-2.11l1.38-90.72c.02-1.13.93-2.03,2.08-2.05Z"/>
    </clipPath>
    <clipPath id="clippath-2">
      <path class="cls-1" d="M129.14,94.7l52.34,18.53c1.13.4,1.73,1.61,1.36,2.73l-21.9,66.93c-.39,1.19-4.53,9.99-5.71,9.56l-56.54-18.21c-1.21-.44-2.3-13.54-1.76-14.69l29.43-63.69c.48-1.04,1.69-1.54,2.78-1.15Z"/>
    </clipPath>
    <clipPath id="clippath-3">
      <path class="cls-1" d="M238.63,408.2c-3.15.03-6.72.47-10.19.49-4.15.03-6.77-4.34-4.74-7.89,2.67-4.66,5.05-9.4,5.86-14.91,1.2-8.17.14-16.91,4.17-24.53,7.3-13.82,11.99-27.67,12.53-43.14.18-5.14-.62-10.28-.5-15.43.09-3.83-1.61-8.06-1.47-11.56-.8,20.6-18.16,49.31-40.27,52.64-4.01.6-8.12.49-12.07,1.41-4.65,1.08-8.9,3.56-13.62,4.32-4.79.78-9.79-.26-14.5.89-2.6.63-5,1.91-7.63,2.43-13.24,2.59-6.36-16.42-5.4-23.02,1.84-12.62,3.67-25.23,5.51-37.85,9.68,3.61,19.68,5.43,29.97,6.18,16.8,1.22,17.68-14.49,22.3-27.33,3.7-10.29,7.4-20.58,10.47-31.07,1.6-5.45,3.28-11.36,7.83-14.85,3.78-2.9,8.96-3.56,13.67-2.72,5.38.96,10.1,3.54,15.24,4.2,10.63,1.37,17.56,9.18,21.94,18.92,6.01,13.38,11.04,27.06,9.17,42.11-1.17,9.41-2.63,16.92-.55,26.26,1.94,8.71,3.38,19.72,2.49,28.37-.85,8.27-2.12,16.48-3.29,24.71-.98,6.92-3.56,14.38-2.75,21.42.51,4.41,2.46,5.66,1.16,10.81-2.14,8.47-7.27,5.93-14.2,6.73-10.18,1.17-20.65,2.3-31.11,2.39Z"/>
    </clipPath>
    <clipPath id="clippath-4">
      <path class="cls-1" d="M197.55,209.66l-69.83.8c-1.33,0-18.61-1.05-18.61-2.21l16.2-84.34c0-1.16,1.08-2.11,2.41-2.11h76.94c1.33,0,2.41.94,2.41,2.11l-7.11,83.64c0,1.16-1.08,2.11-2.41,2.11Z"/>
    </clipPath>
    <clipPath id="clippath-5">
      <path class="cls-1" d="M338.99,382.48h50.8v15.86c0,9.25-7.51,16.76-16.76,16.76h-17.29c-9.25,0-16.76-7.51-16.76-16.76v-15.86h0Z"/>
    </clipPath>
  </defs>
  <g id="BACKGROUND">
    <rect class="cls-15" width="500" height="500"/>
  </g>
  <g id="OBJECTS">
    <path class="cls-16" d="M185.27,400.31c-17.73-6.73-34.14-16.49-50.02-26.86-10.22-6.67-20.4-13.73-28.27-23.05-8.48-10.05-13.93-22.32-17.96-34.84-12.91-40.14,1.35-86.24,40.74-105.97,11.49-5.75,24.13-8.79,36.08-13.52,16.65-6.59,31.98-16.51,44.8-29.01,17.19-17.19,28.15-42.77,46.71-58,13.06-10.72,37.98-17.4,54.26-18.44,25.34-1.62,50.47,10.03,68.32,28.1,17.84,18.06,28.91,41.99,34.84,66.68,11.61,48.3,3.88,101.27-22.5,143.36-30.01,47.89-88.06,83.34-145.15,82.77-21.06-.21-42.12-3.72-61.84-11.21Z"/>
    <g>
      <g>
        <path class="cls-8" d="M102.35,413.83h4.67c-3.93-16.53-9.07-40.35-26.85-44.69-4.82-1.24-10.91.26-13.6,4.88-3.29,5.64,2.29,11.28,6.44,14.67,6.13,4.99,13.33,8.36,19.78,12.86,4.16,2.91,7.15,7.47,9.55,12.29Z"/>
        <path class="cls-18" d="M104.25,413.83h2.53c2.35-11.23,5.77-21.95,11-32.21,4.36-8.53,13.84-16.97,12.89-27.08-.19-2.05-.78-4.11-2.01-5.74-2.75-3.62-8.19-4.14-12.21-2.13s-6.79,5.96-8.75,10.09c-2.68,5.64-4.41,11.99-5.06,18.3-.15,1.5-.25,2.99-.28,4.47-.2,9.54-.4,19.13.73,28.6.23,1.92.54,3.88,1.17,5.7Z"/>
        <path class="cls-7" d="M145.59,384.45c-.91-3.85-5.18-6.07-9.02-5.74-3.84.32-7.25,2.59-10.25,5.08-8.85,7.35-16.89,18.39-20.08,30.04h3.07c3.24-3.45,6.82-6.17,11.5-8.42,6.88-3.3,14.33-5.73,20.14-10.75,2.95-2.55,5.54-6.36,4.63-10.2Z"/>
        <path class="cls-6" d="M119.18,356.83c-8.86,16.37-14,35.85-13.56,54.62"/>
        <path class="cls-6" d="M103.25,411.41c-3.59-10.79-9.74-20.67-17.78-28.51"/>
        <path class="cls-6" d="M137.36,391.27c-10.41,5.03-21.34,10.39-28.35,20.18"/>
      </g>
      <g>
        <path class="cls-9" d="M81.41,411.38h45.76v15.27c0,8.25-6.7,14.96-14.96,14.96h-15.85c-8.25,0-14.96-6.7-14.96-14.96v-15.27h0Z"/>
        <g class="cls-21">
          <path d="M80.02,429.47c.14-.7.36-1.38.78-1.94,1.36-1.78,4.31-1.44,5.8.23.56.62,1.02,1.42,1.81,1.65,1,.3,1.97-.44,2.9-.91,2.62-1.31,6.16-.27,7.6,2.33,1,1.81.14,4.08.89,5.68.7,1.51,2.27,1.09,3.53,2.08,1.14.9,1.02,2.83.12,3.99-3.11,4.06-10.99,5.67-15.64,4.77-1.33-.26-2.7-.54-3.84-1.31-4.67-3.18-4.69-10.6-4.12-15.53.04-.35.09-.7.15-1.05Z"/>
          <path d="M132.28,412.89c-2.22-2.48-4.9-4.72-7.99-5.87-1.33-.49-1.71.06-2.61-1.29-.79-1.17-.2-2.88-1.21-4.02-1.09-1.25-3.13-.84-4.49.1-4.04,2.81-13.05,15.37-4.76,18.67,1.57.63,3.32.23,5,.1,1.68-.12,3.64.2,4.5,1.69.3.51.43,1.11.66,1.65,2.12,4.86,8.1-.76,9.33,4.31.19.79.1,1.62-.1,2.41-.75,2.84-3.48,5.24-6.31,4.8-1.32-.21-2.57-.98-3.9-.84-2.23.25-3.41,3.36-2.27,5.35,1.15,1.99,3.87,2.59,5.95,1.73,2.08-.87,3.54-2.9,4.3-5.07.28-.8.48-1.63.94-2.34.48-.75,1.21-1.29,1.81-1.95,1.62-1.79,2.2-4.35,2.29-6.79.1-2.47-.16-4.87.18-7.27.33-2.31.35-3.48-1.33-5.35Z"/>
        </g>
      </g>
    </g>
    <g>
      <g>
        <path class="cls-2" d="M133.69,83.9c10.23-2.15,20.83-2.62,31.22-1.39,2.59.31,5.28.76,7.41,2.25,4.61,3.2,4.93,9.7,4.65,15.25-.69,13.91-2.4,28.18-9.1,40.45.6-.57,1.2-1.14,1.8-1.71"/>
        <path d="M177.18,137.18l-44.41-62.81c-.73-1.04-1.91-1.44-2.68-.91l-63.4,43.69c-.83.57-.83,1.99-.01,3.09l49.05,66.01c.77,1.03,7.23,10.4,7.97,9.81l59.38-45.28c.74-.59-5.15-12.54-5.9-13.6Z"/>
      </g>
      <path class="cls-2" d="M299.83,154.58c0-11.61,4.12-25.34,12.43-33.9,2.85-2.93,3.38-1.82,7.08-.58,9.87,3.31,19.29,11.71,22.52,21.66,1.66,5.1,2.86,8.3,3.67,13.48"/>
      <path class="cls-2" d="M362.73,244.52c-4.28-29.83-7.28-59.83-8.99-89.91"/>
      <path class="cls-8" d="M290.26,152.55c10.54-.16,57.56-1,67.92-1.19,1.14-.02,2.08.85,2.14,1.96l16.03,89.84c.07,1.17-.86,2.17-2.05,2.2l-12.43,2.49-72.9-.43c-1.2.03-2.19-.93-2.18-2.11l1.38-90.72c.02-1.13.93-2.03,2.08-2.05Z"/>
      <g class="cls-10">
        <g>
          <path class="cls-7" d="M330.3,225.82c-5.51,0-4.54,8.39.94,8.39s4.54-8.39-.94-8.39Z"/>
          <path class="cls-7" d="M288.09,163.16c-5.51,0-4.54,8.39.94,8.39s4.54-8.39-.94-8.39Z"/>
          <path class="cls-7" d="M312.53,242.57c-5.51,0-4.54,8.39.94,8.39s4.54-8.39-.94-8.39Z"/>
          <path class="cls-7" d="M285.49,233.83c-5.51,0-4.54,8.39.94,8.39s4.54-8.39-.94-8.39Z"/>
          <path class="cls-7" d="M340.3,183.56c-5.51,0-4.54,8.39.94,8.39s4.54-8.39-.94-8.39Z"/>
          <path class="cls-7" d="M363.63,177.01c-5.51,0-4.54,8.39.94,8.39s4.54-8.39-.94-8.39Z"/>
          <path class="cls-7" d="M327.71,166.44c-5.51,0-4.54,8.39.94,8.39s4.54-8.39-.94-8.39Z"/>
          <path class="cls-7" d="M346.23,209.06c-5.51,0-4.54,8.39.94,8.39s4.54-8.39-.94-8.39Z"/>
          <path class="cls-7" d="M365.86,222.9c-5.51,0-4.54,8.39.94,8.39s4.54-8.39-.94-8.39Z"/>
          <path class="cls-7" d="M352.15,238.2c-5.51,0-4.54,8.39.94,8.39s4.54-8.39-.94-8.39Z"/>
          <path class="cls-7" d="M303.64,220.72c-5.51,0-4.54,8.39.94,8.39s4.54-8.39-.94-8.39Z"/>
          <path class="cls-7" d="M323.27,201.78c-5.51,0-4.54,8.39.94,8.39s4.54-8.39-.94-8.39Z"/>
          <path class="cls-7" d="M306.23,186.48c-5.51,0-4.54,8.39.94,8.39s4.54-8.39-.94-8.39Z"/>
        </g>
      </g>
      <path class="cls-2" d="M315.18,113.13c1.5-2.32,12.43-12.47,40.2-8.28"/>
      <path class="cls-2" d="M362.46,247.83c-5.35-30.09-9.72-60.35-13.11-90.71"/>
      <path class="cls-20" d="M274.8,400.09l-24.01-11.19c-.45,6.79-.42,13.57.08,20.27.59,7.95-.05,21.38,6.16,21.72,4.35.24,12.43-.67,16.82-.73-.6-5.29-.42-10.72.08-16.18.38-4.19.64-9.05.87-13.9Z"/>
      <g>
        <path class="cls-2" d="M135.21,104.84c4-7.74,29.52-25.59,41.53-18.7"/>
        <path class="cls-7" d="M129.14,94.7l52.34,18.53c1.13.4,1.73,1.61,1.36,2.73l-21.9,66.93c-.39,1.19-4.53,9.99-5.71,9.56l-56.54-18.21c-1.21-.44-2.3-13.54-1.76-14.69l29.43-63.69c.48-1.04,1.69-1.54,2.78-1.15Z"/>
        <g class="cls-13">
          <path class="cls-9" d="M110.56,162.89c8.58-21.54,17.96-42.76,28.13-63.62,1.61-3.31-3.68-5.63-5.29-2.32-10.28,21.08-19.75,42.53-28.4,64.31,1.85.55,3.71,1.09,5.57,1.63Z"/>
          <path class="cls-9" d="M149.1,91.88c-10.15,24.5-20.05,49.09-29.74,73.77,1.83.63,3.63,1.29,5.41,2.02,9.65-24.58,19.51-49.07,29.62-73.47,1.4-3.39-3.88-5.72-5.29-2.32Z"/>
          <path class="cls-9" d="M162.16,93.67c-7.64,26.62-17.02,52.71-28.01,78.16,1.75.8,3.49,1.61,5.22,2.46,11.21-25.96,20.73-52.6,28.53-79.77,1.01-3.52-4.73-4.35-5.73-.85Z"/>
          <path class="cls-9" d="M170.83,100.47c-6.55,25.11-14.47,49.83-23.69,74.11-1.3,3.42,3.99,5.76,5.29,2.32,9.4-24.76,17.45-49.98,24.13-75.58.93-3.55-4.81-4.38-5.73-.85Z"/>
        </g>
        <path class="cls-2" d="M97.53,158.44c14.63,7.9,31.83,10.25,46.49,18.11,3.83,2.05,7.51,4.49,11.69,5.69"/>
      </g>
      <path class="cls-8" d="M250.72,438.12c0,.07.01.14.02.21.03.21.09.42.25.57.19.19.53,2.23.8,2.26,1.19.14,2.39.24,3.58.33h47.47c2.45-2.61-2.01-8.09-4.05-9.68-4.28-3.35-9.53-4.1-14.64-5.41-2.45-.63-6.07-1.53-7.94-3.33-.94-.91-1.3-4.19-2.81-4.27-7.6-.39-15.24.31-22.76,0-.98,2.54-.78,5.7-.78,8.39,0,3.78.49,7.21.86,10.93Z"/>
      <path class="cls-4" d="M250.35,434.88c17.87,1.08,35.69,1.71,53.49,3.65"/>
      <path class="cls-3" d="M289.24,430.66c1.26-.53,2.36-1.45,3.09-2.6.17-.26.32-.56.27-.86-.08-.47-.64-.74-1.12-.68-.48.06-.9.34-1.29.62-.98.7-1.97,1.39-2.95,2.09-.28.2-.58.4-.92.45s-.74-.13-.82-.46c-.02-.54.36-1.01.77-1.37.41-.35.89-.65,1.19-1.11.29-.46.33-1.14-.11-1.47-.27-.21-.66-.22-.99-.14-1.66.36-2.53,2.35-4.17,2.8-.16.04-.34.07-.49,0-.27-.13-.31-.49-.24-.77.28-1.11,1.61-1.83,1.64-2.97,0-.19-.03-.4-.16-.55-.23-.29-.69-.3-1.05-.2-1.58.44-2.33,2.18-2.86,3.71"/>
      <path d="M256.26,431.39c1.49.65,3.4.19,4.41-1.07,1.01-1.26,1.01-3.2.02-4.46-.28-.36-.65-.68-1.09-.83-.58-.21-1.22-.12-1.82-.01-1.18.21-2.43.56-3.21,1.46-.67.78-.89,1.92-.53,2.88.35.96,1.26,1.71,2.28,1.88"/>
      <path class="cls-20" d="M152.23,318.53l18.19-19.05c-6.43-2.5-13-4.56-19.64-6.15-7.87-1.88-20.67-6.61-22.91-.89-1.57,4-3.17,11.84-4.45,15.98,5.31,1.06,10.5,2.89,15.63,5.03,3.94,1.65,8.56,3.37,13.19,5.08Z"/>
      <path class="cls-8" d="M122.6,284.29c.07.01.14.03.21.04,3.71.79,7.18,1.4,10.84,2.55,2.6.82,5.72,1.61,7.88,3.3-2.61,6.95-4.27,14.32-6.98,21.31-.54,1.4-3.83.72-4.99,1.33-2.31,1.2-4.29,4.31-5.66,6.41-2.84,4.39-5.17,9.07-9.73,12.05-2.37,1.55-10.12,4.41-10.98-.17-.35-1.86,1.42-4.83,2.03-6.53,1.01-2.8,2.05-5.6,3.11-8.38,4.03-10.55,8.41-20.97,13.16-31.23.11-.24.24-.5.48-.62.19-.1.41-.09.63-.06Z"/>
      <path class="cls-20" d="M312.63,119.2c-3.38,13.05-6.32,26.49-11.03,39.17-2.72,7.32-8.06,18.35,3.2,21.96,2.39.77,4.98.62,7.49.39,2.5-.23,5.19-.62,7-2.33,1.85-1.76,2.32-4.47,2.68-6.98,1.08-7.46,2.15-14.93,3.23-22.39.67-4.67,1.35-9.5,1.49-14.21,1.17-.32,1.8-1.57,2.05-2.74.41-1.92.18-3.96-.66-5.74.31.6,1.27.58,1.75.11s.6-1.2.6-1.87c0-.76-.11-1.52-.33-2.24-.21-.7-.56-1.43-1.23-1.77-.77-.39-1.39.18-2.05.35.08-.49.18-1.03.12-1.53-.07-.6-.39-1.21-.95-1.46-.88-.4-1.87.21-2.65.79.12-.65.23-1.31.15-1.96-.09-.65-.41-1.31-.98-1.64-.64-.37-1.47-.27-2.12.08-1.69.92-2.32,2.96-3.09,4.57-.52-3.24.56-6.7,2.84-9.09.51-.53,1.11-1.14,1.01-1.86-.1-.67-.82-1.11-1.51-1.1s-1.31.37-1.85.78c-2.81,2.16-3.86,5.8-4.75,9.2-.13.51-.27,1.01-.4,1.52Z"/>
      <path class="cls-9" d="M321.37,176.31c.92-3.29,1.78-6.97,1.14-7.17-7.65-2.34-15.34-4.53-23.08-6.56-2.49,9.68-8.03,19.03-18.17,22.35-7.46,3.14-15.71,3.95-23.82,4.11-3.59.07-7.43-.06-10.36-2.1,1.2,4.41.39,8.89,1.29,13.38.94,4.63,1.72,9.3,2.58,13.94.26,1.42,1.17,8.83,2.51,9.26.63.2,5.95-2.51,7.04-2.71,7.83-1.49,15.64-3.18,23.12-5.96,4.74-1.77,9.33-3.96,13.58-6.69,2.9-1.87,5.21-4.37,7.92-6.44,8.47-6.46,13.45-15.4,16.24-25.42Z"/>
      <path class="cls-7" d="M238.63,408.2c-5.05.04-11.15,1.14-16.27-.08-1.29-.31-1.89-1.77-1.23-2.91,3.57-6.16,7.36-12.08,8.43-19.32,1.2-8.17.14-16.91,4.17-24.53,7.3-13.82,11.99-27.67,12.53-43.14.18-5.14-.62-10.28-.5-15.43.09-3.83-1.61-8.06-1.47-11.56-.8,20.6-18.16,49.31-40.27,52.64-4.01.6-8.12.49-12.07,1.41-4.65,1.08-8.9,3.56-13.62,4.32-4.79.78-9.79-.26-14.5.89-2.6.63-5,1.91-7.63,2.43-13.24,2.59-6.36-16.42-5.4-23.02,1.84-12.62,3.67-25.23,5.51-37.85,9.68,3.61,19.68,5.43,29.97,6.18,16.8,1.22,17.68-14.49,22.3-27.33,3.7-10.29,7.4-20.58,10.47-31.07,1.6-5.45,3.28-11.36,7.83-14.85,3.78-2.9,8.96-3.56,13.67-2.72,5.38.96,10.1,3.54,15.24,4.2,10.63,1.37,17.56,9.18,21.94,18.92,6.01,13.38,11.04,27.06,9.17,42.11-1.17,9.41-2.63,16.92-.55,26.26,1.94,8.71,3.38,19.72,2.49,28.37-.85,8.27-2.12,16.48-3.29,24.71-.98,6.92-3.56,14.38-2.75,21.42.51,4.41,2.46,5.66,1.16,10.81-2.14,8.47-7.27,5.93-14.2,6.73-10.18,1.17-20.65,2.3-31.11,2.39Z"/>
      <g class="cls-11">
        <g>
          <path class="cls-18" d="M269.81,363.72c-5.01-.64-5.74-10.68-4.59-14.34.82-2.62,11.49-15.78,13.6-8.04.5,1.84-3.22,6.02-3.79,7.9-.94,3.13-.8,5.82-.23,9,.3,1.67,2.35,6.06,1.27,7.45-1.76,2.27-7.02.09-6.27-1.98Z"/>
          <path class="cls-18" d="M240.6,328.67c2.48-4.43,6.79-8.15,11.2-10.4,2.03-1.03,4.47-1.96,6.76-1.97,1.81,0,4.42-.19,5.68,1.33.82.99,1,.99-.19,2.11-1.48,1.41-3.74,2.35-5.4,3.61-1.9,1.45-3.86,2.54-5.86,3.82-2.12,1.37-3.95,3.32-5.52,5.27-.95,1.18-1.99,2.32-2.91,3.5-.71.91-1.16,2.57-2.2,3.16-4.38,2.48-3.35-6.41-2.57-8.35.29-.71.63-1.41,1.01-2.09Z"/>
          <path class="cls-18" d="M261.23,287.67c.56,1.44.58,2.91.78,4.51.51,4.05,2.61,6.93,5.99,9.24,3.54,2.41,17.85,3.86,16.84-3.55-.46-3.36-8.79-4.12-11.54-7.09-1.45-1.57-2.32-3.56-3.65-5.22-1.56-1.93-3.36-2.46-5.62-3.34-1.37-.53-2.31-1.71-3.56-2.2-1.75-.69-2.73,1.15-3.65,2.45,0,0,3.51,3.53,3.8,3.99.26.4.46.8.61,1.2Z"/>
          <path class="cls-18" d="M252.44,378.46c.64,3.3,1.8,6.46,3.05,9.94.47,1.31,1.07,2.67,1.45,4,.41,1.45.25,3.21,1.49,4.35.79.72,1.95.88,2.54,1.76-2.81,2.05-3.28,1.23-5.78-.61-1.33-.98-2.71-1.99-4.17-2.78-2.99-1.61-5.47-4.55-6.74-7.66-2.24-5.47-.72-10.98,1.4-16.24.79-1.97,3.8-7.96,6.25-4.54.86,1.19.23,3.05.11,4.35-.24,2.66-.05,5.09.4,7.44Z"/>
          <path class="cls-18" d="M291.83,377.01c-8.88-5.31-28.96,11.07-22,14.72,2.89,1.51,14.78-3.91,18.01-5.01,6.69-2.28,10.79-6.92,3.98-9.71Z"/>
          <path class="cls-18" d="M270.82,257.97c.34-.64.68-1.28,1.05-1.91,1-1.71,1.59-4.02,2.84-5.52,1.64-1.95,5.4-3.73,5.3-6.48-.08-2-.96-2.44-2.77-2.55-2.01-.12-3.56-.65-5.39.4-4.64,2.67-8.42,7.67-10.02,12.61-1.22,3.78-2.79,9.78.74,12.89-.28,1.83-.14,4.1-.71,5.86.9-.51,2.64-.22,3.76-.45.16-1.87-.5-3.82-.14-5.65.35-1.76,1.6-3.2,2.65-4.6,1.09-1.46,1.87-3.03,2.7-4.6Z"/>
          <path class="cls-18" d="M240.57,319.23c.19-1.11.37-2.21.57-3.28.69-3.74.59-6.82-2.04-9.81-1.99-2.26-4.44-4.43-7.27-5.61-2.39-1-5.38-2.18-7.95-1.31-4.79,1.62,2.23,6.72,4.08,8.76,2.18,2.41,3.81,5.71,5.41,8.49.87,1.52,1.86,3.12,2.36,4.8.38,1.27.05,4.99,2.07,5.04,1.27.03,1.37-.91,1.67-1.94.47-1.65.81-3.41,1.11-5.15Z"/>
          <path class="cls-18" d="M206.82,335.55c6.33-2.49,8.13-10.94,6.68-16.82-.76-3.06-2.85-8.66-6.13-9.59-1.69,5.32-3.19,10.72-5.52,15.8-1.22,2.65-2.57,5.34-4.47,7.58-1.01,1.19-4.38,2.38-4.54,3.79-.06.55.86,2.22,1.28,2.73,1.14-.67,2.43-.65,3.65-1.08,1.22-.43,2.13-1.38,3.41-1.64,1.86-.38,3.6-.02,5.48-.72.06-.02.11-.04.17-.07Z"/>
          <path class="cls-18" d="M199.76,275.13c5.71-5.37,15.75-7.85,23.38-5.43,2.82.89,11.67,6.42,9.07,10.61-1.93,3.12-6.78-.3-9.65-.97-8.58-2.01-15.91.74-24.17,2.15-.33-1.92.08-4.01,1.37-6.36Z"/>
          <path class="cls-18" d="M170.75,307.15c2.93.02,5.34,1.25,8.14,2.4,3.29,1.34,6.18,3.64,7.95,6.71,1.52,2.64,2.08,5.71,1.63,8.72-.17,1.14-2,10.67-2.08,10.68-1.12.11-2.25-.09-3.29-.5.89-3.05.96-5.11-.43-7.95-1.34-2.74-2.06-6.16-4.43-8.28-2.05-1.84-5.66-2.37-8.19-3.59-1.89-.91-3.09-3.64-3.72-5.54-.41-1.24-.84-1.12.22-1.97.75-.6,1.71-.44,2.58-.56.56-.08,1.09-.11,1.61-.11Z"/>
          <path class="cls-18" d="M163.77,334.11c1.03.38,2.01.82,2.78,1.59,1.4,1.41,2.17,3.45,2.76,5.29,1.13,3.55,1.85,7.66,1.47,11.38-.56,5.54-4.12,13.28-10.49,13.75-.75-6.54,3.21-11.96,1.98-18.76-.54-3-2.92-5.64-4.28-8.31-.66-1.28-.97-2.7-1.63-3.97-.56-1.09-2.38-2.59-2.14-3.92.15-.82,1.45-1.37,1.88-2.2,1.49,1.05,2.89,2.84,4.39,3.77,1.01.63,2.17.97,3.28,1.38Z"/>
          <path class="cls-18" d="M144.72,315.49c9.17.31,15.99-4.43,20.58-12.18,1.21-2.04,8.69-20.24.93-18.16-1.31.35-4.14,8.1-4.94,9.18-2.12,2.89-4.97,7.15-8.17,8.91-5.56,3.07-11.29,4.67-8.41,12.25Z"/>
          <path class="cls-18" d="M233.28,416.88c.33-4.42-1.14-9.61-3.58-13.32-1.65-2.51-8.44-8.22-3.95-11.74,9.43-7.39,21.59,27.61,7.53,25.06Z"/>
        </g>
        <path class="cls-6" d="M249.55,365.69c-1.93,3.05-.83,8.59-.69,12.05.15,3.67.39,7.12,1.46,10.57,1,3.22,2.9,5.69,4.24,8.63"/>
        <path class="cls-6" d="M268.64,390.46c1.9-2.04,3.93-3.45,6.39-4.85,2.62-1.5,4.94-2.95,7.92-3.69,2.93-.72,5.78-1.58,8.54-2.78"/>
        <path class="cls-6" d="M277.15,339.44c-2.03.78-4.17,5.13-5.28,6.88-1.78,2.82-2.23,6.27-2.04,9.52.14,2.47.65,4.84,1.15,7.22"/>
        <path class="cls-6" d="M262.47,317.13c-1.05.3-1.74,1.23-2.54,1.9-2.14,1.78-4.42,3.2-6.81,4.62-5.6,3.3-10.63,9.33-13.67,14.98"/>
        <path class="cls-6" d="M234.95,411.3c0-3.6-.71-5.93-2.62-9.04-2.05-3.33-4.16-8.84-8.72-9.5"/>
        <path class="cls-6" d="M284.15,298.92c-3.21,0-6.56.03-9.63-1.08-3.03-1.1-5.23-3.68-7.24-6.07-2.13-2.55-4.69-3.4-7.15-5.48"/>
        <path class="cls-6" d="M222.78,301.22c2.69.46,6.26,4.57,8,6.22,3.88,3.67,7.62,8.97,8.68,14.29"/>
        <path class="cls-6" d="M195.76,336.33c2.44.19,5.41-4.17,6.67-5.84,2.47-3.27,4.66-7.09,5.89-10.98.54-1.71,2.91-10.13.11-10.91"/>
        <path class="cls-6" d="M264.31,268.9c-.12-8.71,5.07-18.29,10.51-24.77"/>
        <path class="cls-6" d="M232.12,280.38c-1.06-.41-1.23-1.98-2.04-2.84-1.81-1.92-4.92-2.42-7.36-3.04-6.11-1.54-11.88-1.88-18.12-.69"/>
        <path class="cls-6" d="M185.92,332.39c.04-5.5-2.13-12.99-6.39-16.79-3.48-3.11-8.13-4.15-11.96-6.51"/>
        <path class="cls-6" d="M160.49,332.73c1.03,3.49,3.08,6.01,4.58,9.34,1.42,3.16,1.26,6.6,1.84,10.02.22,1.31.51,4.86-.17,5.57"/>
        <path class="cls-6" d="M151.73,311.39c2.26-1.7,4.5-3.17,6.32-5.41,3.29-4.05,7.09-9.63,8.19-14.77"/>
        <path d="M212.77,250.03c-4.36,2.97-1.24,6.19,2,8.32,3.94,2.59,6.45,1.18,10.76-.07,2.94-.85,3.47.77,5.99,1.74,2.72,1.04,6.02.25,8.52-.87,3.61-1.62,6.51-3.58,10.62-2.98,4.54.66,8.16.51,12.75-.18,4.72-.7,9.41-1.85,14.16-2.26,1.38-.12,3.61-.03,4.74-.82-1-2.4-2.07-4.36-4.61-5.46-2.47-1.06-4.85-1.46-7.26-2.64-2.42-1.19-5.45-1.68-8.07-2.24-4.01-.86-8.31-1.76-12.43-1.78-12.9-.06-25.68,3.58-37.15,9.23Z"/>
        <path d="M232.4,338.31c1.42-2.77,1.55-6.1-.16-9.2-1.07-1.93-3.87-5.67-5.94-6.65-3.85-1.83-6.98.49-7.76,4.33-.39,1.94.08,3.5.5,5.36.54,2.4.12,4.78.54,7.2.84,4.88,4.3,5.87,8.38,3.54,1.95-1.12,3.48-2.72,4.44-4.58Z"/>
        <path d="M240.58,360.4c1.7-3.73,4.26-7.7,3.88-11.97-.25-2.79-1.96-4.15-3.02-6.54-3.37-7.62,4.06-12.58,5.36-19.45.92-4.85.7-9.97,2.9-14.51,2.19-4.51,2.96-9.65,2.72-14.66-.04-.78-.1-1.55-.18-2.32-.3-2.71-1.87-4.95-2.12-7.69-.27-3.01.62-6.05.36-9.08-.08-.93-.21-3.49-1.3-3.97-1.69-.74-1.46,3.58-1.53,4.74-.18,2.89-.38,5.68-.86,8.59-.4,2.41-.59,4.77-1.2,7.16-.43,1.67-1.12,3.44-1.3,5.13-.55,5.31-.07,10.69-.69,16.06-.51,4.45-2.5,9.16-3.52,13.59-1,4.35-2.34,8.58-4.48,12.53-1.02,1.89-2.52,3.51-3.55,5.38-2.04,3.7-1.99,7.65-3.11,11.57-2.14,7.52-9.89,14.27-9.28,22.55.58,7.9,8.21,11.11,14.51,5.81,3.29-2.77,3.66-7.09,3.94-11.05.32-4.42.57-7.71,2.47-11.87Z"/>
      </g>
      <path class="cls-9" d="M269.75,194.35c-5.02-3.01-10.52-4.73-15.66-5.66-6.38-1.15-12.47-1.08-19.64-.81-7.75.29-12.87,2.23-18.21,8.05-3.17,3.45-4.63,7.7-5.17,12.25-.66,5.49-1.37,11.12-4.39,15.91-.61.97-1.3,1.92-1.67,3-1.03,3.03.65,6.36.09,9.51-.33,1.84-1.41,3.51-1.64,5.36-.15,1.14.04,2.3.22,3.44.23,1.44.46,2.89.69,4.33.88,5.49,8.57,3.18,12.49,3.08,5.97-.15,11.95-.05,17.92-.09,16.52-.12,33.07-.32,49.52-2,3.25-.33-5.4-41.14-6.11-44.58-.46-2.21-.95-4.47-2.16-6.39-1.25-1.98-3.18-3.46-5.17-4.73-.36-.23-.73-.46-1.09-.68Z"/>
      <g>
        <path class="cls-20" d="M240.96,155.32c-.42.14-.83.3-1.22.48-1.21.56-1.41,1.42-1.91,2.65-1.07,2.61-1.38,5.46-1.53,8.24-.28,5.33-.06,10.67-.04,16.01,0,1.79-.25,4.86-2.63,5.04-.45.04-.9.12-1.33.26.05-.02,1.42,1.65,1.63,1.8.59.43,1.12.94,1.71,1.39,1.28.97,2.73,1.73,4.27,2.21,3,.95,6.33.85,9.26-.3.9-.35,1.85-.67,2.65-1.22,1.08-.76,1.9-1.97,2.31-3.21-1.26-.43-2.57-1.12-3.06-2.44-.16-.41-.36-4.31-.33-4.31,1.99-.21,4.39-.73,6.15-1.75,1.64-.95,2.76-3.57,3.21-5.42.55-2.22.61-4.53.6-6.82,0-5.35-.34-10.69-1-16-4.94.91-9.94,1.06-14.82,2.34-1.25.33-2.64.61-3.92,1.04Z"/>
        <path d="M226.62,170.17c.96,2.05,2.38,3.95,4.38,5.02,1.38.74,3.08,1.02,4.62.66,2.03-.47,2.51-1.49,2.94-3.37.27-1.18.42-2.39.53-3.59.05-.55-.21-1.28.12-1.77.45-.68,1.34-.42,1.86-.94.27-.28.29-.71.27-1.1-.06-1.16-1.1-4.09.65-4.56.35-.09.71-.04,1.06-.12.76-.16,1.27-.86,1.64-1.54.37-.68.7-1.43,1.34-1.87.49-.34,1.1-.45,1.69-.53,2.52-.33,4.93.03,7.45.13,2.04.08,4.33.07,5.79-1.35,2.69-2.62,1.53-7.02-1.43-8.77-2.74-1.62-6.39-1.64-9.15-.04-.3.18-.61.37-.95.45-.35.07-.72.01-1.07-.04-3.12-.47-6.32-.38-9.4.28,1.79-.38.6-3.76.23-4.63-.55-1.29-1.35-2.92-2.51-3.8-3.16-2.42-8.39-1.48-10.46,1.89.49-2.9.19-6.02-1.35-8.54-1.54-2.53-4.44-4.33-7.43-4.11s-5.75,2.77-5.71,5.72c-.5-1.72-2.1-3.03-3.89-3.39-1.78-.36-3.69.17-5.15,1.25-2.53,1.86-3.64,5.38-2.63,8.32,1.01,2.94,4.07,5.08,7.22,5.04,3.16-.04,6.16-2.25,7.09-5.22-1.27,3.39.44,7.59,3.74,9.19,3.3,1.59,7.72.36,9.68-2.69-1,1.17-.34,3.1.93,3.97,1.34.92,3.47,1.14,4.96.45-3.78.99-6.79,4.11-8.03,7.75-1.24,3.64-.84,7.72.67,11.26.09.2.17.4.27.6Z"/>
        <path class="cls-20" d="M235.41,170.43c.68,2.55,5.04,4.44,5.95,1.12.53-1.91-.38-5.11-2.72-5.36-2.24-.24-3.75,2.29-3.23,4.24Z"/>
        <path class="cls-5" d="M237.21,169.1c.13-.34.44-.58.78-.72.6-.24,1.31-.18,1.9.1.59.28,1.05.78,1.35,1.35"/>
        <path class="cls-5" d="M254.4,163.56c.11,1.33.08,1.99.27,3.55,2.51.45,2.22,2.81-.83,2.68"/>
        <path class="cls-5" d="M250.93,181.99c-1.74.44-3.69-.07-4.99-1.28"/>
        <path d="M249.91,165.48c0,.53-.43.95-.95.95s-.95-.43-.95-.95.43-.95.95-.95.95.43.95.95Z"/>
        <path d="M259.5,164.38c0,.53-.43.95-.95.95s-.95-.43-.95-.95.43-.95.95-.95.95.43.95.95Z"/>
        <path class="cls-15" d="M250.98,173.07c.38,1.46.98,1.97,1.37,2.22.29.18.59.35.91.48,1.06.42,2.33.28,3.28-.36.95-.64,1.55-1.76,1.55-2.91l-7.11.57Z"/>
      </g>
      <path class="cls-20" d="M168,91.2c.09,1.5.25,2.99.36,4.48.92,11.82,1.18,23.72,1.77,35.59.08,1.69.17,3.38.25,5.07.19,3.88.47,8.02,2.83,11.12,2.65,3.48,7.55,4.85,11.89,4.06,2.88-.53,5.52-1.9,7.8-3.69,2.78-2.18,3.05-3.25,2.91-6.64-.24-5.54-3.49-11.53-4.92-16.95-1.6-6.1-2.86-12.29-3.76-18.53-1.01-7-2.04-13.98-1.82-21.08.02-.63.05-1.26-.11-1.87-.16-.61-.54-1.19-1.12-1.44-.9-.39-2.02.32-2.24,1.21.14-.57.28-1.17.12-1.73-.15-.49-.35-1.17-.81-1.46-1.14-.73-2.38,1.16-2.85,1.9.32-.89.77-2.26.23-3.15-.26-.43-.78-.73-1.29-.67-.47.06-.86.38-1.18.73-1,1.1-1.74,2.7-2.3,4.06-.85,2.04-1.51,4.16-1.98,6.32-.53-2.92.06-5.63,1.39-8.24.4-.78,1.25-1.51.41-2.38-.46-.47-1.26-.47-1.84-.15-.79.46-1.53,1.67-1.97,2.46-1.33,2.4-1.72,4.85-1.83,7.56-.04,1.14,0,2.27.06,3.41Z"/>
      <path class="cls-9" d="M209.38,168.24c-8.92-11.99-12.52-27.05-15.62-41.62-.07.04-.15.08-.22.12-1.78.94-3.57,1.87-5.36,2.8-7.46,2.1-13.66,2.08-19.93,5.57,3.92,29.79,19.68,62.75,43.48,81.59,6.68,5.29,16.02,10.46,24.6,10.52,4.02-9.83,6.3-19.88,7.97-30.34-8.67-3.77-18.85-7.05-34.92-28.64Z"/>
      <path class="cls-4" d="M127.37,285.31c-6.53,16.4-14.79,32.31-22.12,48.38"/>
      <path class="cls-3" d="M118.21,322.68c.13,1.35.68,2.65,1.57,3.69.2.23.44.47.75.51.48.07.91-.37,1-.84.09-.47-.06-.94-.21-1.4-.37-1.13-.75-2.27-1.12-3.4-.11-.32-.21-.66-.15-1,.06-.33.35-.65.7-.62.53.14.87.65,1.08,1.14.21.5.36,1.04.71,1.45.35.41,1,.66,1.45.35.28-.19.41-.55.44-.88.16-1.67-1.5-3.09-1.43-4.76,0-.16.04-.34.15-.46.21-.21.57-.14.82.02.99.6,1.28,2.06,2.38,2.44.19.06.39.09.58.02.36-.13.5-.55.51-.92.06-1.62-1.39-2.85-2.71-3.81"/>
      <path d="M127.49,293.05c-1.15,1.26-1.3,3.31-.33,4.72.97,1.41,2.95,2.05,4.57,1.47.46-.16.9-.42,1.21-.81.4-.51.52-1.17.61-1.8.17-1.24.21-2.59-.46-3.66-.58-.92-1.68-1.5-2.78-1.46-1.1.04-2.16.7-2.67,1.66"/>
      <path class="cls-17" d="M332.19,148.48c1.67,7.55,3.55,8.1,6.5,6.4.8-.46,1.41-2.09,1.98-2.81,9.09-11.44,15.82-24.69,19.67-38.72,1.17-4.27,2.08-8.73,1.35-13.08-.51-3.04-.49-12.65-7.83-11.99-2.21.2-4.54,9.03-5.35,11.08-1.33,3.36-2.65,6.72-3.96,10.08-5.28,13.57-8.03,25.15-12.37,39.05Z"/>
      <path class="cls-2" d="M280.33,217.07c-.33-2.32-.67-4.65-1-6.97"/>
      <path class="cls-2" d="M209.79,216.4c.33-3.61,1.41-6.36,2.5-9.68"/>
      <path class="cls-2" d="M254.3,188.51c-1.01,5.03-8.58,6.48-12.88,5.61-3.84-.78-7.26-3.06-9.14-6.27"/>
      <path class="cls-2" d="M314.76,113.13c-1.31,1.75-1.92,3.04-1.24,5.07,1.04,3.11,2.62,5.57,4.32,8.35,1.66,2.71,3.49,5.35,5.57,7.78,4.01,4.69,7.27,6.6,12.78,9.39"/>
      <path class="cls-20" d="M321.15,108.8c-.1-.67-.82-1.11-1.51-1.1-.68,0-1.31.37-1.85.78-2.12,1.63-4.8,5.69-3.77,8.47.48,1.3,1.95,2.65,3.28,2.8-.52-3.24.56-6.7,2.84-9.09.51-.53,1.11-1.14,1.01-1.86Z"/>
      <g>
        <path class="cls-18" d="M354.21,88.44l-1,7.87-15.88,48.54c-.31.9.17,1.88,1.07,2.22l75.23,28.07c.98.37,2.07-.16,2.37-1.15l17.93-59.2c.28-.92.94-4.06,0-4.36l-75.79-21.45c-.94-.3-3.62-1.46-3.94-.54Z"/>
        <path class="cls-18" d="M352.88,98.3l-18.55,54.75c-.31.9.17,1.88,1.07,2.22l75.23,28.07c.98.37,2.07-.16,2.37-1.15l17.93-59.2c.28-.92-.24-1.9-1.18-2.2l-74.6-23.61c-.94-.3-1.95.21-2.26,1.13Z"/>
        <path class="cls-2" d="M354.55,96.61c25.04,9.6,50.31,18.62,75.79,27.04"/>
        <path class="cls-9" d="M369.91,135.92c1.5-8.03,8.2-14.87,16.3-16.64,2.32-.51,5.22-.39,6.46,1.61.91,1.48.44,3.53-.81,4.75-1.25,1.22-3.1,1.69-4.85,1.63,2.1,1.85,2.88,5.02,1.88,7.62s-3.73,4.45-6.55,4.46c1.91,1.45,2.75,4.13,2.01,6.39-.74,2.26-3.02,3.95-5.43,4.02,1.51-.05,2.54,12.5-4.97,2.54-3.49-4.63-5.09-10.68-4.03-16.38Z"/>
        <path class="cls-2" d="M392.8,122.94c-.51,2.92-3.91,4.27-6.81,5.1,1.73,1.48,2.6,3.87,2.21,6.09s-2.03,4.19-4.17,5.01c-.6.23-1.38.57-1.32,1.2.02.24.18.45.32.66,2.2,3.26-.17,8.43-4.11,8.97.27,1.01.54,2.03.82,3.04"/>
        <path class="cls-2" d="M422.68,151.21c-1.93,5.25-3.84,10.52-4.96,16.01"/>
        <path class="cls-2" d="M427.13,136.75c-.54,2.68-1.29,5.31-2.14,7.9"/>
        <path class="cls-2" d="M433.92,114.78c-1.58,5.12-3.17,10.25-4.75,15.37"/>
      </g>
      <g>
        <path class="cls-18" d="M197.55,209.66l-69.83.8c-1.33,0-18.61-1.05-18.61-2.21l16.2-84.34c0-1.16,1.08-2.11,2.41-2.11h76.94c1.33,0,2.41.94,2.41,2.11l-7.11,83.64c0,1.16-1.08,2.11-2.41,2.11Z"/>
        <g class="cls-12">
          <g>
            <path class="cls-19" d="M149.28,197.2c-3.92,6.05-6.18,12.73-6.63,19.67-.35,5.34,9.14,6.66,9.5,1.25.42-6.3,2.34-12.02,5.91-17.51,3.04-4.69-5.75-8.07-8.78-3.41Z"/>
            <path class="cls-19" d="M198.12,165.21c-3.86.19-7.94-1.61-9.76-4.67-1.2-2.01-3.59-3.29-6.21-2.41-2.21.74-3.97,3.4-2.76,5.42,3.91,6.56,11.25,10.43,19.79,10,6.17-.31,5.11-8.65-1.06-8.34Z"/>
            <path class="cls-19" d="M165.32,118.02c-1.12,5.03-1.49,10.09-1.27,15.21.24,5.39,9.78,4.46,9.55-.92-.19-4.4.26-8.72,1.22-13.03,1.18-5.3-8.32-6.55-9.5-1.25Z"/>
            <path class="cls-19" d="M134.68,145.66c-6.01.23-11.63-1.45-16.33-4.7-4.85-3.35-10.95,3.13-6.1,6.48,6.79,4.69,14.86,6.88,23.49,6.55,6.18-.24,5.11-8.57-1.06-8.34Z"/>
            <path class="cls-19" d="M153.92,161.6c-2.7,3.08-5.39,6.16-8.09,9.23-3.75,4.29,3.66,9.62,7.42,5.33,2.7-3.08,5.39-6.16,8.09-9.23,3.75-4.29-3.66-9.62-7.42-5.33Z"/>
            <path class="cls-19" d="M127.88,180.83c-7.27.87-13.97,2.92-20.37,6.04-5.4,2.63.27,9.42,5.61,6.81,4.91-2.39,10.26-3.85,15.82-4.51,6.11-.73,5.09-9.07-1.06-8.34Z"/>
            <path class="cls-19" d="M191.35,202.39c-.76-6.22-2.56-12.24-5.43-17.97-2.48-4.94-11.46-1.95-8.97,3.01,2.57,5.11,4.18,10.33,4.85,15.88.65,5.37,10.2,4.46,9.55-.92Z"/>
            <path class="cls-19" d="M202.55,145.91c-.76-6.01-3.07-11.59-6.78-16.69-3.32-4.57-11.1.35-7.8,4.89,2.83,3.89,4.46,8.14,5.03,12.72.68,5.36,10.23,4.46,9.55-.92Z"/>
          </g>
        </g>
        <path class="cls-17" d="M147.75,129.51c0,1.53-1.42,2.78-3.18,2.78s-3.18-1.24-3.18-2.78,1.42-2.78,3.18-2.78,3.18,1.24,3.18,2.78Z"/>
        <path class="cls-17" d="M194.4,130.05c0,1.53-1.42,2.78-3.18,2.78s-3.18-1.24-3.18-2.78,1.42-2.78,3.18-2.78,3.18,1.24,3.18,2.78Z"/>
        <path class="cls-2" d="M126.96,210.45c2-28.98,6.28-57.94,8.27-86.92"/>
        <path class="cls-2" d="M112.37,192.45c-.6,3.13-1.21,6.25-1.81,9.38"/>
        <path class="cls-2" d="M120.39,150.93c-1.96,10.16-3.93,20.32-5.89,30.48"/>
      </g>
      <path class="cls-2" d="M326.97,120.71c-1.3,1.49-2.14,3.36-2.39,5.3"/>
      <path class="cls-2" d="M170.07,86.47c-18.45,7.49-26.28,24.16-25.45,43.04"/>
      <path class="cls-2" d="M323.71,118.32c-1.72,1.49-2.84,3.63-3.08,5.87"/>
      <path class="cls-2" d="M317.36,119.45c-.05.57-.23,1.14-.52,1.64"/>
      <path class="cls-2" d="M178.88,80.61c-1.6,3.18-3.05,7.93-2.47,11.43"/>
      <path class="cls-2" d="M181.85,82.66c-1.61,3.18-1.73,6.7-1.1,10.2"/>
      <path class="cls-6" d="M249.81,419.73c7.83-.22,15.66-.45,23.5-.67"/>
      <path class="cls-6" d="M134.41,311.43c2.75-6.68,4.97-13.57,6.63-20.59"/>
      <path class="cls-5" d="M236.4,228.32c-.66-2.03-.95-4.27-.22-6.28.73-2.01,2.69-3.68,4.86-3.59,2.7.11,4.56,2.67,5.74,5.05.17-3.56,3.22-6.01,6.67-6.58,2.23-.37,4.81.57,5.69,2.61.88,2.06-.15,4.38-1.23,6.34-2.66,4.81-7.98,9.93-9.58,14.98-4.98-2.35-10.21-7.28-11.92-12.54Z"/>
      <path class="cls-2" d="M171.55,86.82c10.56,5.26,22.45,29.95,19.08,43.23"/>
      <path class="cls-20" d="M170.03,91.9c.75-.36,1.33-1.3,1.53-2.02.46-1.67-.13-3.25.07-4.93.18-1.56.66-3.16,1.6-4.45.51-.7,1.05-1.97-.33-1.8-.88.1-1.8.78-2.36,1.42-.77.88-1.33,1.81-1.74,2.9-.37.99-.65,1.87-.8,2.89-.13.83-.1,1.64-.14,2.48-.04.75-.05,1.52.06,2.25.07.46.33.91.74,1.17.49.31.96.3,1.37.1Z"/>
      <path class="cls-2" d="M171.91,86.96c-.16,1.75-.11,3.51.15,5.25"/>
      <path class="cls-2" d="M288.54,325.17c.25,2.46.29,4.95,0,7.41"/>
      <path class="cls-2" d="M285.01,269c1.33,8.08,1.54,16.28.71,24.43-.82,8.07-.24,15.19,1.38,23.12"/>
      <path class="cls-2" d="M239.09,408.4c3.84-.72,7.69-1.45,11.6-1.58,2.05-.07,4.1.02,6.15.03,6.53.05,13.07-.7,19.41-2.22"/>
      <path class="cls-2" d="M159.78,351.9c4.6-1.29,9.32-2.59,14.08-2.2,1.65.13,3.29.47,4.94.46,5.58-.04,9.91-3.83,15.03-5.39,5.21-1.59,11.28-2.14,16.72-2.52"/>
      <path class="cls-2" d="M151.07,327.3c-.45,2.43-.93,4.86-1.43,7.29"/>
      <path class="cls-2" d="M155.9,291.88c-.83,9.41-2.01,18.79-3.55,28.11"/>
      <path class="cls-2" d="M318.64,183.79c-1.56,4.24-3.69,8.29-6.31,12"/>
      <path class="cls-2" d="M308.08,199.45c-2.63,2.39-5.26,4.79-7.89,7.18"/>
      <path class="cls-2" d="M318.67,167.73c1.67.69,3.32,1.43,4.94,2.21"/>
      <path class="cls-2" d="M298.41,162.45c5.13.38,10.17,1.63,15.01,3.29"/>
    </g>
    <g>
      <g>
        <path class="cls-7" d="M360.13,386.49h5.95c4.55-16.68-3.22-37.6-15.1-48.7-4.42-4.13-9.7-7.5-15.59-8.84-5.1-1.16-16.47.38-16.56,7.37-.11,8,21.83,20.84,27.25,26.04,4.58,4.39,8.76,9.47,11.58,15.18,1.29,2.61,1.85,5.86,2.48,8.95Z"/>
        <path class="cls-18" d="M357.31,313.83c2.46-12.13,7.93-23.61,16.91-32.01,5.04-4.71,15.99-8.72,20.93-1.79,5.25,7.36-.92,18.45-5.07,24.45-7.55,10.91-13.94,22.17-18.31,34.75-3.13,9.02-10.15,27.52-7.07,37.04-5.14-15.92-9.39-32.42-8.9-49.15.13-4.44.63-8.9,1.51-13.29Z"/>
        <path class="cls-6" d="M364.08,370.78c-2.26-18.91-.17-38.33,6.05-56.33"/>
        <path class="cls-8" d="M420.08,322.58c-6.66-6.71-19.92-1.62-26.91,2.01-.17.09-.35.18-.51.27-13.45,7.26-24.68,16.1-28.76,31.6-2.14,8.13-1.95,16.7-1.01,25.06.19,1.66.41,3.32.69,4.97h4.79c5.01-16.58,13.26-32.26,31.32-37.58,3.76-1.11,7.68-1.66,11.41-2.88,8.93-2.9,16.97-15.4,8.97-23.46Z"/>
        <path class="cls-6" d="M394.19,336.3c-15.45,9.66-26.45,32.04-28.11,50.19"/>
        <path class="cls-6" d="M361.79,385.77c-.26-10.08-4.75-19.53-9.64-28.35-1.99-3.6-4.21-7.3-7.72-9.44"/>
      </g>
      <g>
        <polyline class="cls-6" points="344.93 440.99 351.76 409.12 374.81 409.12 380.79 440.99"/>
        <path class="cls-9" d="M338.99,382.48h50.8v15.86c0,9.25-7.51,16.76-16.76,16.76h-17.29c-9.25,0-16.76-7.51-16.76-16.76v-15.86h0Z"/>
        <line class="cls-6" x1="338.92" y1="417.09" x2="388.83" y2="417.09"/>
        <g class="cls-14">
          <path d="M357,392.58c.63,2.27,3.28,3.59,5.6,3.16,2.31-.42,4.19-2.26,5.18-4.4.99-2.14,1.2-4.55,1.2-6.9,0-8.86-12.33-14.33-18.43-7.08-1.94,2.3-2.59,7.32-1.4,10.11,2.35,5.47,6.51.27,7.85,5.11Z"/>
          <path d="M374.68,401.91c.61-1.61,1.29-3,2.1-3.6,3.14-2.32,6.34.28,6.24,3.53-.12,3.92-5.33,6.04-4.45,10.42.21,1.07.78,2.03,1.1,3.07,2.01,6.52-6.46,12.36-9.47,4.91-1.9-4.71-.18-7.58,2.01-11.63.81-1.5,1.57-4.34,2.47-6.7Z"/>
          <path d="M351.88,407.2c.45.38.92.8,1.08,1.37,1.63,5.9-14.89,11.32-16.34,1.63-.4-2.65.63-6.15,3.67-6.7,2.21-.4,3.24,1.54,4.91,2.02,2.53.73,3.91-.7,6.69,1.68Z"/>
        </g>
      </g>
    </g>
    <g>
      <g>
        <path class="cls-9" d="M398.83,220.41c0-2.81-1.38-4.81-6.22-6.24-3.18-.93-4.23-1.6-4.23-3.45,0-1.47.87-2.89,3.41-2.89,2.8,0,3.61,1.46,3.88,2.71h2.65c-.24-1.91-1.4-4.27-5.26-4.68v-2.12h-2.26v2.12c-3.07.36-5.04,2.28-5.04,5.08,0,2.98,1.91,4.46,6.1,5.65,3.37.95,4.36,2.23,4.36,4.06,0,2.08-1.45,3.26-4.03,3.26-2.32,0-3.83-1.12-4.32-3.39h-2.59c.36,2.85,2.2,4.93,5.64,5.32v2.58h2.27v-2.56c3.49-.34,5.65-2.37,5.65-5.47Z"/>
        <path class="cls-9" d="M398.51,220.41c0-2.81-1.38-4.81-6.22-6.24-3.18-.93-4.23-1.6-4.23-3.45,0-1.47.87-2.89,3.41-2.89,2.8,0,3.61,1.46,3.88,2.71h2.65c-.24-1.91-1.4-4.27-5.26-4.68v-2.12h-2.26v2.12c-3.07.36-5.04,2.28-5.04,5.08,0,2.98,1.91,4.46,6.1,5.65,3.37.95,4.36,2.23,4.36,4.06,0,2.08-1.45,3.26-4.03,3.26-2.32,0-3.83-1.12-4.32-3.39h-2.58c.36,2.85,2.2,4.93,5.64,5.32v2.58h2.27v-2.56c3.49-.34,5.65-2.37,5.65-5.47Z"/>
      </g>
      <g>
        <path d="M413.67,232.19c0-1.98-.97-3.4-4.39-4.4-2.24-.66-2.99-1.13-2.99-2.43,0-1.04.62-2.04,2.41-2.04,1.98,0,2.55,1.03,2.74,1.91h1.87c-.17-1.35-.99-3.02-3.71-3.3v-1.49h-1.6v1.5c-2.17.26-3.56,1.61-3.56,3.58,0,2.1,1.34,3.15,4.3,3.99,2.38.67,3.08,1.57,3.08,2.87,0,1.47-1.02,2.3-2.85,2.3-1.64,0-2.7-.79-3.05-2.39h-1.82c.25,2.01,1.55,3.48,3.98,3.76v1.82h1.6v-1.81c2.47-.24,3.99-1.67,3.99-3.86Z"/>
        <path d="M413.97,232.19c0-1.98-.97-3.4-4.39-4.4-2.24-.66-2.99-1.13-2.99-2.43,0-1.04.62-2.04,2.41-2.04,1.98,0,2.55,1.03,2.74,1.91h1.87c-.17-1.35-.99-3.02-3.71-3.3v-1.49h-1.6v1.5c-2.17.26-3.56,1.61-3.56,3.58,0,2.1,1.34,3.15,4.3,3.99,2.38.67,3.08,1.57,3.08,2.87,0,1.47-1.02,2.3-2.85,2.3-1.64,0-2.7-.79-3.05-2.39h-1.82c.25,2.01,1.55,3.48,3.98,3.76v1.82h1.6v-1.81c2.47-.24,3.99-1.67,3.99-3.86Z"/>
      </g>
      <g>
        <path d="M93.4,297.51c0-2.07-1.02-3.55-4.59-4.6-2.35-.69-3.13-1.18-3.13-2.54,0-1.08.64-2.13,2.52-2.13,2.07,0,2.66,1.08,2.86,2h1.96c-.18-1.41-1.03-3.15-3.88-3.45v-1.56h-1.67v1.57c-2.26.27-3.72,1.69-3.72,3.75,0,2.2,1.41,3.29,4.5,4.17,2.49.7,3.22,1.65,3.22,3,0,1.54-1.07,2.4-2.98,2.4-1.71,0-2.83-.83-3.19-2.5h-1.91c.26,2.1,1.62,3.64,4.16,3.93v1.91h1.68v-1.89c2.58-.25,4.17-1.75,4.17-4.04Z"/>
        <path d="M93.71,297.51c0-2.07-1.02-3.55-4.59-4.6-2.35-.69-3.13-1.18-3.13-2.54,0-1.08.64-2.13,2.52-2.13,2.07,0,2.66,1.08,2.86,2h1.96c-.18-1.41-1.03-3.15-3.88-3.45v-1.56h-1.67v1.57c-2.26.27-3.72,1.69-3.72,3.75,0,2.2,1.41,3.29,4.5,4.17,2.49.7,3.22,1.65,3.22,3,0,1.54-1.07,2.4-2.98,2.4-1.71,0-2.83-.83-3.19-2.5h-1.91c.26,2.1,1.62,3.64,4.16,3.93v1.91h1.68v-1.89c2.58-.25,4.17-1.75,4.17-4.04Z"/>
      </g>
      <polygon class="cls-9" points="139.35 238.22 140.7 242 144.32 240.28 142.6 243.91 146.38 245.25 142.6 246.6 144.32 250.22 140.7 248.5 139.35 252.28 138.01 248.5 134.38 250.22 136.11 246.6 132.32 245.25 136.11 243.91 134.38 240.28 138.01 242 139.35 238.22"/>
      <polygon class="cls-7" points="252.85 102.46 254.19 106.25 257.82 104.52 256.09 108.15 259.88 109.49 256.09 110.84 257.82 114.46 254.19 112.74 252.85 116.52 251.5 112.74 247.88 114.46 249.6 110.84 245.82 109.49 249.6 108.15 247.88 104.52 251.5 106.25 252.85 102.46"/>
      <polygon class="cls-18" points="319.09 268.07 320.44 271.85 324.06 270.13 322.34 273.75 326.12 275.1 322.34 276.44 324.06 280.07 320.44 278.34 319.09 282.13 317.75 278.34 314.12 280.07 315.84 276.44 312.06 275.1 315.84 273.75 314.12 270.13 317.75 271.85 319.09 268.07"/>
      <polygon class="cls-19" points="170.07 405.28 171.42 409.06 175.04 407.34 173.32 410.96 177.1 412.31 173.32 413.65 175.04 417.28 171.42 415.55 170.07 419.34 168.73 415.55 165.1 417.28 166.82 413.65 163.04 412.31 166.82 410.96 165.1 407.34 168.73 409.06 170.07 405.28"/>
      <path class="cls-6" d="M93.52,238.98c0-2.41,1.96-4.37,4.37-4.37s4.37,1.96,4.37,4.37"/>
      <path class="cls-6" d="M400.36,256.81c-2.6,0-4.72-2.11-4.72-4.72s2.11-4.72,4.72-4.72"/>
      <path class="cls-6" d="M314.29,326.85c-1.84-1.84-1.84-4.83,0-6.67s4.83-1.84,6.67,0"/>
      <circle class="cls-6" cx="161.98" cy="250.53" r="2.62"/>
      <circle class="cls-5" cx="278.81" cy="122.17" r="2.62"/>
      <circle class="cls-6" cx="340.11" cy="286.67" r="3.14"/>
      <path class="cls-5" d="M182.94,391.45c0,2.03-1.64,3.67-3.67,3.67s-3.67-1.64-3.67-3.67,1.64-3.67,3.67-3.67,3.67,1.64,3.67,3.67Z"/>
    </g>
    <line class="cls-2" x1="70.1" y1="441.59" x2="429.9" y2="441.59"/>
  </g>
</svg>